<svg width="96" height="80" xmlns="http://www.w3.org/2000/svg" style="vector-effect: non-scaling-stroke;" fill="none">
 <defs style="vector-effect: non-scaling-stroke;">
  <linearGradient style="vector-effect: non-scaling-stroke;" y2="0.57601" x2="0.22285" y1="0.13494" x1="1.38426" id="a">
   <stop style="vector-effect: non-scaling-stroke;" stop-color="#FFF100"/>
   <stop style="vector-effect: non-scaling-stroke;" stop-color="#F05A28" offset="1"/>
  </linearGradient>
 </defs>
 <g>
  <title>Layer 1</title>
  <path stroke-width="10" id="svg_13" fill="url(#a)" d="m8.2382,22.6923l-1.542,0c-0.9252,0 -1.6962,0.7693 -1.6962,1.6924c0,0.923 0.771,1.6922 1.6962,1.6922l1.542,0c0.9252,0 1.6962,-0.7692 1.6962,-1.6922c0,-0.9231 -0.771,-1.6924 -1.6962,-1.6924zm30.9938,24.3078l-1.542,0c-0.925,0 -1.696,0.7692 -1.696,1.6922c0,0.9231 0.771,1.6923 1.696,1.6923l1.542,0c0.925,0 1.696,-0.7692 1.696,-1.6923c-0.154,-0.923 -0.771,-1.6922 -1.696,-1.6922zm-1.388,-16.0001c0,-0.923 -0.771,-1.6922 -1.696,-1.6922l-5.551,0c-0.925,0 -1.6963,0.7692 -1.6963,1.6922c0,0.9231 0.7713,1.6923 1.6963,1.6923l5.551,0c0.925,0 1.696,-0.7692 1.696,-1.6923zm53.045,-10.4615l-1.697,-9.53846c-0.771,-3.84616 -3.546,-6.00004 -7.247,-6.00004l-65.6885,0c-2.9298,0 -4.9343,2.46154 -4.4717,5.38462l1.8503,10.15388c0,0.1539 0,0.1539 0,0.3077c0.1542,1.2308 -0.4626,1.6923 -0.9252,1.8461c-0.6168,0.3077 -1.0793,0.7692 -1.0793,1.5385c0,0.923 0.771,1.6923 1.6961,1.6923l73.0903,0c3.084,0.1539 5.088,-2.3077 4.472,-5.3846zm-22.205,38.3077c-0.771,-3.6924 -2.776,-5.0769 -5.243,-5.0769l-17.116,0l-0.308,0c-0.925,0 -1.696,0.7692 -1.696,1.6923c0,0.9231 0.616,1.5384 1.542,1.6923c0.616,0.1538 1.079,0.7692 1.542,2.6154l1.85,9.8461c0.463,2.9231 3.392,5.3846 6.476,5.3846l10.332,0c3.084,0 5.088,-2.4615 4.626,-5.3846l-2.005,-10.7692zm-22.976,-8.3077l18.813,0c0.154,0 0.308,0 0.462,0c1.696,-0.3077 1.851,-1.8462 1.542,-3.2308l-2.467,-13.0769c-0.617,-3.3846 -2.621,-4.7692 -5.243,-4.7692l-16.962,0l-0.308,0c-0.925,0 -1.696,0.7692 -1.696,1.6922c0,0.9231 0.617,1.5386 1.542,1.6924c0.617,0.1539 1.233,0.9231 1.542,2.7692l1.85,10c0.154,0.9231 -0.462,1.3846 -1.079,1.6923c-0.617,0.1538 -1.08,0.7692 -1.08,1.5385c0,0.923 0.771,1.6923 1.697,1.6923l1.387,0z"/>
 </g>
</svg>